# MagicaVoxel @ Ephtracy

# group
o 

# material
mtllib harambe.mtl
usemtl palette

# normals
vn -1 0 0
vn 1 0 0
vn 0 0 1
vn 0 0 -1
vn 0 -1 0
vn 0 1 0

# texcoords
vt 0.841797 0.5
vt 0.958984 0.5
vt 0.978516 0.5
vt 0.986328 0.5
vt 0.990234 0.5
vt 0.994141 0.5

# verts
v -0.7 0 0.6
v -0.7 0 0.2
v -0.7 0 -0.4
v -0.7 0 -0.8
v -0.7 0.3 0.6
v -0.7 0.3 0.2
v -0.7 0.3 -0.4
v -0.7 0.3 -0.8
v -0.7 0.8 0.2
v -0.7 0.8 -0.4
v -0.7 1.5 0.6
v -0.7 1.5 -0.8
v -0.6 1.2 0.8
v -0.6 1.2 0.6
v -0.6 1.5 0.6
v -0.6 1.5 0
v -0.6 1.7 0.8
v -0.6 1.7 0.7
v -0.6 1.9 0.8
v -0.6 1.9 0.7
v -0.6 1.9 0
v -0.5 1.9 0.8
v -0.5 1.9 0.7
v -0.5 1.9 0
v -0.5 2 0.8
v -0.5 2 0.7
v -0.5 2.2 0.8
v -0.5 2.2 0
v -0.4 1.3 0.9
v -0.4 1.3 0.8
v -0.4 1.5 0
v -0.4 1.5 -0.8
v -0.4 1.6 0.9
v -0.4 1.6 0.8
v -0.4 1.6 0
v -0.4 1.6 -0.8
v -0.4 1.7 0.9
v -0.4 1.7 0.8
v -0.4 1.9 0.8
v -0.4 2 0.8
v -0.4 2.1 0.9
v -0.4 2.1 0.8
v -0.3 2.2 0.6
v -0.3 2.2 0.2
v -0.3 2.3 0.6
v -0.3 2.3 0.2
v 0.1 0 0.6
v 0.1 0 0.2
v 0.1 0.1 0.6
v 0.1 0.1 0.2
v 0.2 0 -0.4
v 0.2 0 -0.8
v 0.2 0.1 0.6
v 0.2 0.1 0.2
v 0.2 0.3 0.6
v 0.2 0.3 0.2
v 0.2 0.3 -0.4
v 0.2 0.3 -0.8
v 0.2 0.8 0.6
v 0.2 0.8 0.2
v 0.2 0.8 -0.4
v 0.2 0.8 -0.8
v -0.2 0 -0.4
v -0.2 0 -0.8
v -0.2 0.1 0.6
v -0.2 0.1 0.2
v -0.2 0.3 0.6
v -0.2 0.3 0.2
v -0.2 0.3 -0.4
v -0.2 0.3 -0.8
v -0.2 0.8 0.6
v -0.2 0.8 0.2
v -0.2 0.8 -0.4
v -0.2 0.8 -0.8
v -0.1 0 0.6
v -0.1 0 0.2
v -0.1 0.1 0.6
v -0.1 0.1 0.2
v 0.3 2.2 0.6
v 0.3 2.2 0.2
v 0.3 2.3 0.6
v 0.3 2.3 0.2
v 0.4 1.3 0.9
v 0.4 1.3 0.8
v 0.4 1.5 0
v 0.4 1.5 -0.8
v 0.4 1.6 0.9
v 0.4 1.6 0.8
v 0.4 1.6 0
v 0.4 1.6 -0.8
v 0.4 1.7 0.9
v 0.4 1.7 0.8
v 0.4 1.9 0.8
v 0.4 2 0.8
v 0.4 2.1 0.9
v 0.4 2.1 0.8
v 0.5 1.9 0.8
v 0.5 1.9 0.7
v 0.5 1.9 0
v 0.5 2 0.8
v 0.5 2 0.7
v 0.5 2.2 0.8
v 0.5 2.2 0
v 0.6 1.2 0.8
v 0.6 1.2 0.6
v 0.6 1.5 0.6
v 0.6 1.5 0
v 0.6 1.7 0.8
v 0.6 1.7 0.7
v 0.6 1.9 0.8
v 0.6 1.9 0.7
v 0.6 1.9 0
v 0.7 0 0.6
v 0.7 0 0.2
v 0.7 0 -0.4
v 0.7 0 -0.8
v 0.7 0.3 0.6
v 0.7 0.3 0.2
v 0.7 0.3 -0.4
v 0.7 0.3 -0.8
v 0.7 0.8 0.2
v 0.7 0.8 -0.4
v 0.7 1.5 0.6
v 0.7 1.5 -0.8
v -0.4 1.3 0.9
v -0.4 1.6 0.9
v -0.4 1.7 0.9
v -0.4 2.1 0.9
v -0.3 1.6 0.9
v -0.3 1.7 0.9
v -0.3 1.8 0.9
v -0.3 2 0.9
v -0.2 1.4 0.9
v -0.2 1.5 0.9
v -0.2 1.8 0.9
v -0.2 1.9 0.9
v -0.1 1.6 0.9
v -0.1 1.7 0.9
v -0.1 1.8 0.9
v -0.1 1.9 0.9
v -0.1 2 0.9
v 0.1 1.6 0.9
v 0.1 1.7 0.9
v 0.1 1.8 0.9
v 0.1 1.9 0.9
v 0.1 2 0.9
v 0.2 1.4 0.9
v 0.2 1.5 0.9
v 0.2 1.8 0.9
v 0.2 1.9 0.9
v 0.3 1.6 0.9
v 0.3 1.7 0.9
v 0.3 1.8 0.9
v 0.3 2 0.9
v 0.4 1.3 0.9
v 0.4 1.6 0.9
v 0.4 1.7 0.9
v 0.4 2.1 0.9
v -0.6 1.2 0.8
v -0.6 1.7 0.8
v -0.6 1.9 0.8
v -0.5 1.6 0.8
v -0.5 1.7 0.8
v -0.5 1.9 0.8
v -0.5 2 0.8
v -0.5 2.2 0.8
v -0.4 1.3 0.8
v -0.4 1.6 0.8
v -0.4 1.7 0.8
v -0.4 1.9 0.8
v -0.4 2 0.8
v -0.4 2.1 0.8
v 0.4 1.3 0.8
v 0.4 1.6 0.8
v 0.4 1.7 0.8
v 0.4 1.9 0.8
v 0.4 2 0.8
v 0.4 2.1 0.8
v 0.5 1.6 0.8
v 0.5 1.7 0.8
v 0.5 1.9 0.8
v 0.5 2 0.8
v 0.5 2.2 0.8
v 0.6 1.2 0.8
v 0.6 1.7 0.8
v 0.6 1.9 0.8
v -0.7 0 0.6
v -0.7 0.3 0.6
v -0.7 1.5 0.6
v -0.6 0 0.6
v -0.6 0.1 0.6
v -0.6 1.2 0.6
v -0.6 1.5 0.6
v -0.5 0 0.6
v -0.5 0.1 0.6
v -0.4 0 0.6
v -0.4 0.1 0.6
v -0.3 0 0.6
v -0.3 0.1 0.6
v -0.3 2.2 0.6
v -0.3 2.3 0.6
v -0.2 0.1 0.6
v -0.2 0.3 0.6
v -0.2 0.8 0.6
v -0.1 0 0.6
v -0.1 0.1 0.6
v 0.1 0 0.6
v 0.1 0.1 0.6
v 0.2 0.1 0.6
v 0.2 0.3 0.6
v 0.2 0.8 0.6
v 0.3 0 0.6
v 0.3 0.1 0.6
v 0.3 2.2 0.6
v 0.3 2.3 0.6
v 0.4 0 0.6
v 0.4 0.1 0.6
v 0.5 0 0.6
v 0.5 0.1 0.6
v 0.6 0 0.6
v 0.6 0.1 0.6
v 0.6 1.2 0.6
v 0.6 1.5 0.6
v 0.7 0 0.6
v 0.7 0.3 0.6
v 0.7 1.5 0.6
v -0.7 0 -0.4
v -0.7 0.3 -0.4
v -0.7 0.8 -0.4
v -0.2 0 -0.4
v -0.2 0.3 -0.4
v -0.2 0.8 -0.4
v 0.2 0 -0.4
v 0.2 0.3 -0.4
v 0.2 0.8 -0.4
v 0.7 0 -0.4
v 0.7 0.3 -0.4
v 0.7 0.8 -0.4
v -0.7 0 0.2
v -0.7 0.3 0.2
v -0.7 0.8 0.2
v -0.3 2.2 0.2
v -0.3 2.3 0.2
v -0.2 0.1 0.2
v -0.2 0.3 0.2
v -0.2 0.8 0.2
v -0.1 0 0.2
v -0.1 0.1 0.2
v 0.1 0 0.2
v 0.1 0.1 0.2
v 0.2 0.1 0.2
v 0.2 0.3 0.2
v 0.2 0.8 0.2
v 0.3 2.2 0.2
v 0.3 2.3 0.2
v 0.7 0 0.2
v 0.7 0.3 0.2
v 0.7 0.8 0.2
v -0.6 1.5 0
v -0.6 1.9 0
v -0.5 1.9 0
v -0.5 2.2 0
v -0.4 1.5 0
v -0.4 1.6 0
v 0.4 1.5 0
v 0.4 1.6 0
v 0.5 1.9 0
v 0.5 2.2 0
v 0.6 1.5 0
v 0.6 1.9 0
v -0.7 0 -0.8
v -0.7 0.3 -0.8
v -0.7 1.5 -0.8
v -0.4 1.5 -0.8
v -0.4 1.6 -0.8
v -0.2 0 -0.8
v -0.2 0.3 -0.8
v -0.2 0.8 -0.8
v 0.2 0 -0.8
v 0.2 0.3 -0.8
v 0.2 0.8 -0.8
v 0.4 1.5 -0.8
v 0.4 1.6 -0.8
v 0.7 0 -0.8
v 0.7 0.3 -0.8
v 0.7 1.5 -0.8
v -0.7 0 0.6
v -0.6 0 0.6
v -0.5 0 0.6
v -0.4 0 0.6
v -0.3 0 0.6
v -0.1 0 0.6
v 0.1 0 0.6
v 0.3 0 0.6
v 0.4 0 0.6
v 0.5 0 0.6
v 0.6 0 0.6
v 0.7 0 0.6
v -0.6 0 0.5
v -0.5 0 0.5
v -0.4 0 0.5
v -0.3 0 0.5
v 0.3 0 0.5
v 0.4 0 0.5
v 0.5 0 0.5
v 0.6 0 0.5
v -0.7 0 0.2
v -0.1 0 0.2
v 0.1 0 0.2
v 0.7 0 0.2
v -0.7 0 -0.4
v -0.2 0 -0.4
v 0.2 0 -0.4
v 0.7 0 -0.4
v -0.7 0 -0.8
v -0.2 0 -0.8
v 0.2 0 -0.8
v 0.7 0 -0.8
v -0.2 0.8 0.6
v 0.2 0.8 0.6
v -0.7 0.8 0.2
v -0.2 0.8 0.2
v 0.2 0.8 0.2
v 0.7 0.8 0.2
v -0.7 0.8 -0.4
v -0.2 0.8 -0.4
v 0.2 0.8 -0.4
v 0.7 0.8 -0.4
v -0.2 0.8 -0.8
v 0.2 0.8 -0.8
v -0.6 1.2 0.8
v 0.6 1.2 0.8
v -0.6 1.2 0.6
v 0.6 1.2 0.6
v -0.4 1.3 0.9
v 0.4 1.3 0.9
v -0.4 1.3 0.8
v 0.4 1.3 0.8
v -0.2 0.1 0.6
v -0.1 0.1 0.6
v 0.1 0.1 0.6
v 0.2 0.1 0.6
v -0.2 0.1 0.2
v -0.1 0.1 0.2
v 0.1 0.1 0.2
v 0.2 0.1 0.2
v -0.7 1.5 0.6
v -0.6 1.5 0.6
v 0.6 1.5 0.6
v 0.7 1.5 0.6
v -0.6 1.5 0
v -0.4 1.5 0
v 0.4 1.5 0
v 0.6 1.5 0
v -0.7 1.5 -0.8
v -0.4 1.5 -0.8
v 0.4 1.5 -0.8
v 0.7 1.5 -0.8
v -0.4 1.6 0
v 0.4 1.6 0
v -0.4 1.6 -0.8
v 0.4 1.6 -0.8
v -0.6 1.9 0.8
v -0.5 1.9 0.8
v 0.5 1.9 0.8
v 0.6 1.9 0.8
v -0.6 1.9 0.7
v -0.5 1.9 0.7
v 0.5 1.9 0.7
v 0.6 1.9 0.7
v -0.6 1.9 0
v -0.5 1.9 0
v 0.5 1.9 0
v 0.6 1.9 0
v -0.4 2.1 0.9
v 0.4 2.1 0.9
v -0.4 2.1 0.8
v 0.4 2.1 0.8
v -0.5 2.2 0.8
v 0.5 2.2 0.8
v -0.3 2.2 0.6
v 0.3 2.2 0.6
v -0.3 2.2 0.2
v 0.3 2.2 0.2
v -0.5 2.2 0
v 0.5 2.2 0
v -0.3 2.3 0.6
v 0.3 2.3 0.6
v -0.3 2.3 0.2
v 0.3 2.3 0.2

# faces
f 5/3/1 2/3/1 1/3/1
f 6/3/1 2/3/1 5/3/1
f 7/3/1 4/3/1 3/3/1
f 8/3/1 4/3/1 7/3/1
f 9/4/1 6/4/1 5/4/1
f 10/4/1 8/4/1 7/4/1
f 11/4/1 9/4/1 5/4/1
f 11/4/1 10/4/1 9/4/1
f 12/4/1 8/4/1 10/4/1
f 12/4/1 10/4/1 11/4/1
f 15/4/1 14/4/1 13/4/1
f 17/4/1 15/4/1 13/4/1
f 17/4/1 16/4/1 15/4/1
f 18/4/1 16/4/1 17/4/1
f 19/3/1 18/3/1 17/3/1
f 20/4/1 16/4/1 18/4/1
f 20/3/1 18/3/1 19/3/1
f 21/4/1 16/4/1 20/4/1
f 25/3/1 23/3/1 22/3/1
f 26/4/1 24/4/1 23/4/1
f 26/3/1 23/3/1 25/3/1
f 27/4/1 26/4/1 25/4/1
f 28/4/1 24/4/1 26/4/1
f 28/4/1 26/4/1 27/4/1
f 33/3/1 30/3/1 29/3/1
f 34/3/1 30/3/1 33/3/1
f 35/4/1 32/4/1 31/4/1
f 36/4/1 32/4/1 35/4/1
f 37/1/1 34/1/1 33/1/1
f 38/1/1 34/1/1 37/1/1
f 39/3/1 38/3/1 37/3/1
f 40/3/1 39/3/1 37/3/1
f 41/3/1 40/3/1 37/3/1
f 42/3/1 40/3/1 41/3/1
f 45/4/1 44/4/1 43/4/1
f 46/4/1 44/4/1 45/4/1
f 49/3/1 48/3/1 47/3/1
f 50/3/1 48/3/1 49/3/1
f 55/3/1 54/3/1 53/3/1
f 56/3/1 54/3/1 55/3/1
f 57/3/1 52/3/1 51/3/1
f 58/3/1 52/3/1 57/3/1
f 59/4/1 56/4/1 55/4/1
f 60/4/1 56/4/1 59/4/1
f 61/4/1 58/4/1 57/4/1
f 62/4/1 58/4/1 61/4/1
f 65/3/2 66/3/2 67/3/2
f 67/3/2 66/3/2 68/3/2
f 63/3/2 64/3/2 69/3/2
f 69/3/2 64/3/2 70/3/2
f 67/4/2 68/4/2 71/4/2
f 71/4/2 68/4/2 72/4/2
f 69/4/2 70/4/2 73/4/2
f 73/4/2 70/4/2 74/4/2
f 75/3/2 76/3/2 77/3/2
f 77/3/2 76/3/2 78/3/2
f 79/4/2 80/4/2 81/4/2
f 81/4/2 80/4/2 82/4/2
f 83/3/2 84/3/2 87/3/2
f 87/3/2 84/3/2 88/3/2
f 85/4/2 86/4/2 89/4/2
f 89/4/2 86/4/2 90/4/2
f 87/1/2 88/1/2 91/1/2
f 91/1/2 88/1/2 92/1/2
f 91/3/2 92/3/2 93/3/2
f 91/3/2 93/3/2 94/3/2
f 91/3/2 94/3/2 95/3/2
f 95/3/2 94/3/2 96/3/2
f 97/3/2 98/3/2 100/3/2
f 98/4/2 99/4/2 101/4/2
f 100/3/2 98/3/2 101/3/2
f 100/4/2 101/4/2 102/4/2
f 101/4/2 99/4/2 103/4/2
f 102/4/2 101/4/2 103/4/2
f 104/4/2 105/4/2 106/4/2
f 104/4/2 106/4/2 108/4/2
f 106/4/2 107/4/2 108/4/2
f 108/4/2 107/4/2 109/4/2
f 108/3/2 109/3/2 110/3/2
f 109/4/2 107/4/2 111/4/2
f 110/3/2 109/3/2 111/3/2
f 111/4/2 107/4/2 112/4/2
f 113/3/2 114/3/2 117/3/2
f 117/3/2 114/3/2 118/3/2
f 115/3/2 116/3/2 119/3/2
f 119/3/2 116/3/2 120/3/2
f 117/4/2 118/4/2 121/4/2
f 119/4/2 120/4/2 122/4/2
f 117/4/2 121/4/2 123/4/2
f 121/4/2 122/4/2 123/4/2
f 122/4/2 120/4/2 124/4/2
f 123/4/2 122/4/2 124/4/2
f 129/3/3 126/3/3 125/3/3
f 129/1/3 127/1/3 126/1/3
f 130/3/3 128/3/3 127/3/3
f 130/1/3 127/1/3 129/1/3
f 131/3/3 128/3/3 130/3/3
f 132/3/3 128/3/3 131/3/3
f 133/3/3 129/3/3 125/3/3
f 133/3/3 130/3/3 129/3/3
f 133/3/3 131/3/3 130/3/3
f 134/3/3 131/3/3 133/3/3
f 135/2/3 132/2/3 131/2/3
f 135/3/3 131/3/3 134/3/3
f 136/2/3 132/2/3 135/2/3
f 137/3/3 135/3/3 134/3/3
f 138/3/3 135/3/3 137/3/3
f 139/6/3 136/6/3 135/6/3
f 139/3/3 135/3/3 138/3/3
f 140/2/3 132/2/3 136/2/3
f 140/6/3 136/6/3 139/6/3
f 141/3/3 128/3/3 132/3/3
f 141/2/3 132/2/3 140/2/3
f 142/6/3 138/6/3 137/6/3
f 142/3/3 137/3/3 134/3/3
f 143/3/3 140/3/3 139/3/3
f 143/6/3 138/6/3 142/6/3
f 143/3/3 139/3/3 138/3/3
f 143/3/3 141/3/3 140/3/3
f 144/3/3 141/3/3 143/3/3
f 145/3/3 141/3/3 144/3/3
f 146/3/3 128/3/3 141/3/3
f 146/3/3 141/3/3 145/3/3
f 147/6/3 134/6/3 133/6/3
f 147/3/3 133/3/3 125/3/3
f 148/3/3 142/3/3 134/3/3
f 148/6/3 134/6/3 147/6/3
f 148/3/3 143/3/3 142/3/3
f 148/3/3 144/3/3 143/3/3
f 149/6/3 145/6/3 144/6/3
f 149/3/3 144/3/3 148/3/3
f 150/2/3 146/2/3 145/2/3
f 150/6/3 145/6/3 149/6/3
f 151/3/3 149/3/3 148/3/3
f 151/3/3 148/3/3 147/3/3
f 152/3/3 149/3/3 151/3/3
f 153/2/3 150/2/3 149/2/3
f 153/3/3 149/3/3 152/3/3
f 154/3/3 128/3/3 146/3/3
f 154/2/3 150/2/3 153/2/3
f 154/2/3 146/2/3 150/2/3
f 155/3/3 147/3/3 125/3/3
f 155/3/3 151/3/3 147/3/3
f 156/1/3 152/1/3 151/1/3
f 156/3/3 151/3/3 155/3/3
f 157/3/3 153/3/3 152/3/3
f 157/1/3 152/1/3 156/1/3
f 157/3/3 154/3/3 153/3/3
f 158/3/3 128/3/3 154/3/3
f 158/3/3 154/3/3 157/3/3
f 162/4/3 160/4/3 159/4/3
f 163/3/3 161/3/3 160/3/3
f 163/4/3 160/4/3 162/4/3
f 164/3/3 161/3/3 163/3/3
f 167/4/3 162/4/3 159/4/3
f 168/3/3 163/3/3 162/3/3
f 168/4/3 162/4/3 167/4/3
f 169/4/3 164/4/3 163/4/3
f 169/3/3 163/3/3 168/3/3
f 170/3/3 165/3/3 164/3/3
f 170/4/3 164/4/3 169/4/3
f 171/4/3 166/4/3 165/4/3
f 171/3/3 165/3/3 170/3/3
f 172/4/3 166/4/3 171/4/3
f 173/4/3 167/4/3 159/4/3
f 178/4/3 166/4/3 172/4/3
f 179/4/3 174/4/3 173/4/3
f 179/3/3 175/3/3 174/3/3
f 180/4/3 176/4/3 175/4/3
f 180/3/3 175/3/3 179/3/3
f 181/3/3 177/3/3 176/3/3
f 181/4/3 176/4/3 180/4/3
f 182/4/3 178/4/3 177/4/3
f 182/3/3 177/3/3 181/3/3
f 183/4/3 166/4/3 178/4/3
f 183/4/3 178/4/3 182/4/3
f 184/4/3 180/4/3 179/4/3
f 184/4/3 173/4/3 159/4/3
f 184/4/3 179/4/3 173/4/3
f 185/3/3 181/3/3 180/3/3
f 185/4/3 180/4/3 184/4/3
f 186/3/3 181/3/3 185/3/3
f 190/3/3 188/3/3 187/3/3
f 191/3/3 188/3/3 190/3/3
f 192/4/3 189/4/3 188/4/3
f 193/4/3 189/4/3 192/4/3
f 194/4/3 191/4/3 190/4/3
f 195/3/3 188/3/3 191/3/3
f 195/4/3 191/4/3 194/4/3
f 196/3/3 195/3/3 194/3/3
f 197/3/3 188/3/3 195/3/3
f 197/3/3 195/3/3 196/3/3
f 198/4/3 197/4/3 196/4/3
f 199/3/3 188/3/3 197/3/3
f 199/4/3 197/4/3 198/4/3
f 202/3/3 188/3/3 199/3/3
f 202/3/3 199/3/3 198/3/3
f 203/4/3 192/4/3 188/4/3
f 203/3/3 188/3/3 202/3/3
f 204/4/3 192/4/3 203/4/3
f 205/3/3 202/3/3 198/3/3
f 206/3/3 202/3/3 205/3/3
f 209/3/3 208/3/3 207/3/3
f 211/4/3 192/4/3 204/4/3
f 212/3/3 210/3/3 209/3/3
f 212/3/3 209/3/3 207/3/3
f 213/3/3 210/3/3 212/3/3
f 214/4/3 201/4/3 200/4/3
f 215/4/3 201/4/3 214/4/3
f 216/4/3 213/4/3 212/4/3
f 217/3/3 210/3/3 213/3/3
f 217/4/3 213/4/3 216/4/3
f 218/3/3 217/3/3 216/3/3
f 219/3/3 210/3/3 217/3/3
f 219/3/3 217/3/3 218/3/3
f 220/4/3 219/4/3 218/4/3
f 221/3/3 210/3/3 219/3/3
f 221/4/3 219/4/3 220/4/3
f 222/4/3 211/4/3 210/4/3
f 222/4/3 192/4/3 211/4/3
f 224/3/3 221/3/3 220/3/3
f 225/3/3 210/3/3 221/3/3
f 225/3/3 221/3/3 224/3/3
f 225/4/3 223/4/3 222/4/3
f 225/4/3 222/4/3 210/4/3
f 226/4/3 223/4/3 225/4/3
f 230/3/3 228/3/3 227/3/3
f 231/4/3 229/4/3 228/4/3
f 231/3/3 228/3/3 230/3/3
f 232/4/3 229/4/3 231/4/3
f 236/3/3 234/3/3 233/3/3
f 237/4/3 235/4/3 234/4/3
f 237/3/3 234/3/3 236/3/3
f 238/4/3 235/4/3 237/4/3
f 239/3/4 240/3/4 244/3/4
f 240/4/4 241/4/4 245/4/4
f 244/3/4 240/3/4 245/3/4
f 245/4/4 241/4/4 246/4/4
f 239/3/4 244/3/4 247/3/4
f 247/3/4 244/3/4 248/3/4
f 249/3/4 250/3/4 251/3/4
f 242/4/4 243/4/4 254/4/4
f 254/4/4 243/4/4 255/4/4
f 251/3/4 252/3/4 256/3/4
f 249/3/4 251/3/4 256/3/4
f 252/4/4 253/4/4 257/4/4
f 256/3/4 252/3/4 257/3/4
f 257/4/4 253/4/4 258/4/4
f 259/4/4 260/4/4 261/4/4
f 259/4/4 261/4/4 263/4/4
f 261/4/4 262/4/4 263/4/4
f 263/4/4 262/4/4 264/4/4
f 264/4/4 262/4/4 266/4/4
f 266/4/4 262/4/4 267/4/4
f 265/4/4 266/4/4 267/4/4
f 267/4/4 262/4/4 268/4/4
f 265/4/4 267/4/4 269/4/4
f 269/4/4 267/4/4 270/4/4
f 272/4/4 273/4/4 274/4/4
f 271/3/4 272/3/4 276/3/4
f 274/4/4 275/4/4 277/4/4
f 276/3/4 272/3/4 277/3/4
f 272/4/4 274/4/4 277/4/4
f 277/4/4 275/4/4 278/4/4
f 278/4/4 275/4/4 281/4/4
f 281/4/4 275/4/4 282/4/4
f 280/4/4 281/4/4 282/4/4
f 282/4/4 275/4/4 283/4/4
f 279/3/4 280/3/4 284/3/4
f 280/4/4 282/4/4 285/4/4
f 284/3/4 280/3/4 285/3/4
f 285/4/4 282/4/4 286/4/4
f 299/3/5 288/3/5 287/3/5
f 299/4/5 289/4/5 288/4/5
f 300/3/5 290/3/5 289/3/5
f 300/4/5 289/4/5 299/4/5
f 301/4/5 291/4/5 290/4/5
f 301/3/5 290/3/5 300/3/5
f 302/3/5 292/3/5 291/3/5
f 302/4/5 291/4/5 301/4/5
f 303/3/5 294/3/5 293/3/5
f 303/4/5 295/4/5 294/4/5
f 304/3/5 296/3/5 295/3/5
f 304/4/5 295/4/5 303/4/5
f 305/4/5 297/4/5 296/4/5
f 305/3/5 296/3/5 304/3/5
f 306/3/5 298/3/5 297/3/5
f 306/4/5 297/4/5 305/4/5
f 307/3/5 299/3/5 287/3/5
f 307/3/5 300/3/5 299/3/5
f 307/3/5 301/3/5 300/3/5
f 307/3/5 302/3/5 301/3/5
f 308/3/5 292/3/5 302/3/5
f 308/3/5 302/3/5 307/3/5
f 309/3/5 305/3/5 304/3/5
f 309/3/5 304/3/5 303/3/5
f 309/3/5 306/3/5 305/3/5
f 309/3/5 303/3/5 293/3/5
f 310/3/5 298/3/5 306/3/5
f 310/3/5 306/3/5 309/3/5
f 315/3/5 312/3/5 311/3/5
f 316/3/5 312/3/5 315/3/5
f 317/3/5 314/3/5 313/3/5
f 318/3/5 314/3/5 317/3/5
f 322/4/5 320/4/5 319/4/5
f 323/4/5 320/4/5 322/4/5
f 325/4/5 322/4/5 321/4/5
f 325/4/5 324/4/5 323/4/5
f 325/4/5 323/4/5 322/4/5
f 326/4/5 324/4/5 325/4/5
f 327/4/5 324/4/5 326/4/5
f 328/4/5 324/4/5 327/4/5
f 329/4/5 327/4/5 326/4/5
f 330/4/5 327/4/5 329/4/5
f 333/4/5 332/4/5 331/4/5
f 334/4/5 332/4/5 333/4/5
f 337/3/5 336/3/5 335/3/5
f 338/3/5 336/3/5 337/3/5
f 339/3/6 340/3/6 343/3/6
f 343/3/6 340/3/6 344/3/6
f 341/3/6 342/3/6 345/3/6
f 345/3/6 342/3/6 346/3/6
f 347/4/6 348/4/6 351/4/6
f 349/4/6 350/4/6 354/4/6
f 351/4/6 352/4/6 355/4/6
f 347/4/6 351/4/6 355/4/6
f 355/4/6 352/4/6 356/4/6
f 353/4/6 354/4/6 357/4/6
f 354/4/6 350/4/6 358/4/6
f 357/4/6 354/4/6 358/4/6
f 359/4/6 360/4/6 361/4/6
f 361/4/6 360/4/6 362/4/6
f 363/3/6 364/3/6 367/3/6
f 367/3/6 364/3/6 368/3/6
f 365/3/6 366/3/6 369/3/6
f 369/3/6 366/3/6 370/3/6
f 367/4/6 368/4/6 371/4/6
f 371/4/6 368/4/6 372/4/6
f 369/4/6 370/4/6 373/4/6
f 373/4/6 370/4/6 374/4/6
f 375/3/6 376/3/6 377/3/6
f 377/3/6 376/3/6 378/3/6
f 379/4/6 380/4/6 381/4/6
f 381/4/6 380/4/6 382/4/6
f 379/4/6 381/4/6 383/4/6
f 382/4/6 380/4/6 384/4/6
f 379/4/6 383/4/6 385/4/6
f 383/4/6 384/4/6 385/4/6
f 384/4/6 380/4/6 386/4/6
f 385/4/6 384/4/6 386/4/6
f 387/4/6 388/4/6 389/4/6
f 389/4/6 388/4/6 390/4/6
