# MagicaVoxel @ Ephtracy

# group
o 

# material
mtllib banana.mtl
usemtl palette

# normals
vn -1 0 0
vn 1 0 0
vn 0 0 1
vn 0 0 -1
vn 0 -1 0
vn 0 1 0

# texcoords
vt 0.00976563 0.5
vt 0.0175781 0.5
vt 0.0683594 0.5

# verts
v -0.8 1.9 -0.4
v -0.8 1.9 -0.5
v -0.8 2.1 -0.4
v -0.8 2.1 -0.5
v -0.7 1.9 -0.3
v -0.7 1.9 -0.4
v -0.7 2 -0.3
v -0.7 2 -0.4
v -0.6 1.9 -0.5
v -0.6 1.9 -0.6
v -0.6 2.1 -0.5
v -0.6 2.1 -0.6
v -0.5 1.5 -5.96046e-08
v -0.5 1.5 -0.3
v -0.5 1.6 -5.96046e-08
v -0.5 1.6 -0.1
v -0.5 1.6 -0.3
v -0.5 1.6 -0.4
v -0.5 1.7 -0.1
v -0.5 1.7 -0.2
v -0.5 1.7 -0.4
v -0.5 1.7 -0.5
v -0.5 1.8 -0.5
v -0.5 1.8 -0.6
v -0.5 1.9 -0.3
v -0.5 1.9 -0.6
v -0.5 1.9 -0.7
v -0.5 2 -0.2
v -0.5 2 -0.3
v -0.5 2 -0.4
v -0.5 2.1 -0.3
v -0.5 2.1 -0.4
v -0.5 2.1 -0.6
v -0.5 2.1 -0.7
v -0.4 1.1 0.2
v -0.4 1.1 -5.96046e-08
v -0.4 1.2 0.2
v -0.4 1.2 -5.96046e-08
v -0.4 1.3 -5.96046e-08
v -0.4 1.3 -0.2
v -0.4 1.4 0.2
v -0.4 1.4 0.0999999
v -0.4 1.4 -0.2
v -0.4 1.4 -0.3
v -0.4 1.5 -5.96046e-08
v -0.4 1.5 -0.3
v -0.4 1.5 -0.4
v -0.4 1.6 0.0999999
v -0.4 1.6 -5.96046e-08
v -0.4 1.6 -0.1
v -0.4 1.6 -0.3
v -0.4 1.6 -0.4
v -0.4 1.6 -0.5
v -0.4 1.7 -5.96046e-08
v -0.4 1.7 -0.1
v -0.4 1.7 -0.2
v -0.4 1.7 -0.4
v -0.4 1.7 -0.5
v -0.4 1.7 -0.6
v -0.4 1.8 -0.1
v -0.4 1.8 -0.2
v -0.4 1.8 -0.5
v -0.4 1.8 -0.6
v -0.4 2 -0.2
v -0.4 2 -0.3
v -0.4 2 -0.7
v -0.4 2 -0.9
v -0.4 2.1 -0.3
v -0.4 2.1 -0.6
v -0.4 2.1 -0.7
v -0.4 2.1 -0.9
v -0.4 2.6 -0.2
v -0.4 2.6 -0.6
v -0.3 1.7 -5.96046e-08
v -0.3 1.7 -0.1
v -0.3 1.8 -5.96046e-08
v -0.3 1.8 -0.1
v -0.3 1.8 -0.2
v -0.3 1.9 -0.1
v -0.3 1.9 -0.2
v -0.3 1.9 -0.7
v -0.3 1.9 -0.8
v -0.3 2 -0.7
v -0.3 2 -0.8
v -0.3 2.6 -0.2
v -0.3 2.6 -0.6
v -0.3 2.7 -0.2
v -0.3 2.7 -0.6
v -0.2 1.9 -0.1
v -0.2 1.9 -0.2
v -0.2 2 -0.1
v -0.2 2 -0.2
v -0.2 2.7 -0.2
v -0.2 2.7 -0.6
v -0.2 2.8 -0.5
v -0.2 2.8 -0.6
v -0.2 2.9 -0.2
v -0.2 2.9 -0.5
v -0.3 2 -0.8
v -0.3 2 -0.9
v -0.3 2.1 -0.8
v -0.3 2.1 -0.9
v -0.2 1.1 0.2
v -0.2 1.1 -5.96046e-08
v -0.2 1.2 0.2
v -0.2 1.2 -5.96046e-08
v -0.2 1.3 -5.96046e-08
v -0.2 1.3 -0.2
v -0.2 1.4 0.2
v -0.2 1.4 0.0999999
v -0.2 1.4 -0.2
v -0.2 1.4 -0.3
v -0.2 1.5 -5.96046e-08
v -0.2 1.5 -0.3
v -0.2 1.5 -0.4
v -0.2 1.6 0.0999999
v -0.2 1.6 -5.96046e-08
v -0.2 1.6 -0.3
v -0.2 1.6 -0.4
v -0.2 1.6 -0.5
v -0.2 1.7 -0.4
v -0.2 1.7 -0.5
v -0.2 1.7 -0.6
v -0.2 1.8 -0.5
v -0.2 1.8 -0.6
v -0.2 1.9 -0.7
v -0.2 1.9 -0.8
v -0.2 2.1 -0.7
v -0.2 2.1 -0.8
v -0.1 1.5 -5.96046e-08
v -0.1 1.5 -0.3
v -0.1 1.6 -0.3
v -0.1 1.6 -0.4
v -0.1 1.7 -0.4
v -0.1 1.7 -0.5
v -0.1 1.8 -5.96046e-08
v -0.1 1.8 -0.1
v -0.1 1.8 -0.2
v -0.1 1.8 -0.3
v -0.1 1.8 -0.5
v -0.1 1.8 -0.6
v -0.1 1.9 -0.3
v -0.1 1.9 -0.6
v -0.1 1.9 -0.7
v -0.1 2 -0.1
v -0.1 2 -0.2
v -0.1 2.1 -0.6
v -0.1 2.1 -0.7
v -0.1 2.3 -0.2
v -0.1 2.3 -0.4
v -0.1 2.4 -0.4
v -0.1 2.4 -0.6
v -0.1 2.8 -0.5
v -0.1 2.8 -0.6
v -0.1 2.9 -0.2
v -0.1 2.9 -0.5
v 5.96046e-08 1.8 -0.2
v 5.96046e-08 1.8 -0.3
v 5.96046e-08 1.9 -0.2
v 5.96046e-08 1.9 -0.3
v 5.96046e-08 2.2 -0.2
v 5.96046e-08 2.2 -0.6
v 5.96046e-08 2.3 -0.2
v 5.96046e-08 2.3 -0.4
v 5.96046e-08 2.4 -0.4
v 5.96046e-08 2.4 -0.6
v 0.1 1.9 -0.2
v 0.1 1.9 -0.6
v 0.1 2.1 -0.4
v 0.1 2.1 -0.6
v 0.1 2.2 -0.2
v 0.1 2.2 -0.4
v 0.2 2.1 -0.4
v 0.2 2.1 -0.5
v 0.2 2.2 -0.4
v 0.2 2.2 -0.5
v 0.3 2.1 -0.5
v 0.3 2.1 -0.6
v 0.3 2.2 -0.5
v 0.3 2.2 -0.6
v -0.4 1.1 0.2
v -0.4 1.2 0.2
v -0.4 1.4 0.2
v -0.2 1.1 0.2
v -0.2 1.2 0.2
v -0.2 1.4 0.2
v -0.4 1.4 0.0999999
v -0.4 1.6 0.0999999
v -0.2 1.4 0.0999999
v -0.2 1.6 0.0999999
v -0.5 1.5 -5.96046e-08
v -0.5 1.6 -5.96046e-08
v -0.4 1.5 -5.96046e-08
v -0.4 1.6 -5.96046e-08
v -0.4 1.7 -5.96046e-08
v -0.3 1.7 -5.96046e-08
v -0.3 1.8 -5.96046e-08
v -0.2 1.5 -5.96046e-08
v -0.2 1.6 -5.96046e-08
v -0.1 1.5 -5.96046e-08
v -0.1 1.8 -5.96046e-08
v -0.5 1.6 -0.1
v -0.5 1.7 -0.1
v -0.4 1.6 -0.1
v -0.4 1.7 -0.1
v -0.4 1.8 -0.1
v -0.3 1.7 -0.1
v -0.3 1.8 -0.1
v -0.3 1.9 -0.1
v -0.2 1.9 -0.1
v -0.2 2 -0.1
v -0.1 1.8 -0.1
v -0.1 2 -0.1
v -0.5 1.7 -0.2
v -0.5 2 -0.2
v -0.4 1.7 -0.2
v -0.4 1.8 -0.2
v -0.4 1.9 -0.2
v -0.4 2 -0.2
v -0.4 2.6 -0.2
v -0.3 1.8 -0.2
v -0.3 1.9 -0.2
v -0.3 2 -0.2
v -0.3 2.6 -0.2
v -0.3 2.7 -0.2
v -0.2 1.9 -0.2
v -0.2 2 -0.2
v -0.2 2.1 -0.2
v -0.2 2.7 -0.2
v -0.2 2.9 -0.2
v -0.1 1.8 -0.2
v -0.1 2 -0.2
v -0.1 2.1 -0.2
v -0.1 2.3 -0.2
v -0.1 2.9 -0.2
v 5.96046e-08 1.8 -0.2
v 5.96046e-08 1.9 -0.2
v 5.96046e-08 2.2 -0.2
v 5.96046e-08 2.3 -0.2
v 0.1 1.9 -0.2
v 0.1 2.2 -0.2
v -0.7 1.9 -0.3
v -0.7 2 -0.3
v -0.5 1.9 -0.3
v -0.5 2 -0.3
v -0.5 2.1 -0.3
v -0.4 2 -0.3
v -0.4 2.1 -0.3
v -0.8 1.9 -0.4
v -0.8 2.1 -0.4
v -0.7 1.9 -0.4
v -0.7 2 -0.4
v -0.5 2 -0.4
v -0.5 2.1 -0.4
v -0.1 2.3 -0.4
v -0.1 2.4 -0.4
v 5.96046e-08 2.3 -0.4
v 5.96046e-08 2.4 -0.4
v 0.1 2.1 -0.4
v 0.1 2.2 -0.4
v 0.2 2.1 -0.4
v 0.2 2.2 -0.4
v 0.2 2.1 -0.5
v 0.2 2.2 -0.5
v 0.3 2.1 -0.5
v 0.3 2.2 -0.5
v -0.4 1.1 -5.96046e-08
v -0.4 1.2 -5.96046e-08
v -0.4 1.3 -5.96046e-08
v -0.2 1.1 -5.96046e-08
v -0.2 1.2 -5.96046e-08
v -0.2 1.3 -5.96046e-08
v -0.4 1.3 -0.2
v -0.4 1.4 -0.2
v -0.2 1.3 -0.2
v -0.2 1.4 -0.2
v -0.5 1.5 -0.3
v -0.5 1.6 -0.3
v -0.4 1.4 -0.3
v -0.4 1.5 -0.3
v -0.4 1.6 -0.3
v -0.2 1.4 -0.3
v -0.2 1.5 -0.3
v -0.2 1.6 -0.3
v -0.1 1.5 -0.3
v -0.1 1.6 -0.3
v -0.1 1.8 -0.3
v -0.1 1.9 -0.3
v 5.96046e-08 1.8 -0.3
v 5.96046e-08 1.9 -0.3
v -0.5 1.6 -0.4
v -0.5 1.7 -0.4
v -0.4 1.5 -0.4
v -0.4 1.6 -0.4
v -0.4 1.7 -0.4
v -0.2 1.5 -0.4
v -0.2 1.6 -0.4
v -0.2 1.7 -0.4
v -0.1 1.6 -0.4
v -0.1 1.7 -0.4
v -0.8 1.9 -0.5
v -0.8 2.1 -0.5
v -0.6 1.9 -0.5
v -0.6 2.1 -0.5
v -0.5 1.7 -0.5
v -0.5 1.8 -0.5
v -0.4 1.6 -0.5
v -0.4 1.7 -0.5
v -0.4 1.8 -0.5
v -0.2 1.6 -0.5
v -0.2 1.7 -0.5
v -0.2 1.8 -0.5
v -0.2 2.8 -0.5
v -0.2 2.9 -0.5
v -0.1 1.7 -0.5
v -0.1 1.8 -0.5
v -0.1 2.8 -0.5
v -0.1 2.9 -0.5
v -0.6 1.9 -0.6
v -0.6 2.1 -0.6
v -0.5 1.8 -0.6
v -0.5 1.9 -0.6
v -0.5 2.1 -0.6
v -0.4 1.7 -0.6
v -0.4 1.8 -0.6
v -0.4 2.1 -0.6
v -0.4 2.6 -0.6
v -0.3 2.6 -0.6
v -0.3 2.7 -0.6
v -0.2 1.7 -0.6
v -0.2 1.8 -0.6
v -0.2 2.1 -0.6
v -0.2 2.2 -0.6
v -0.2 2.7 -0.6
v -0.2 2.8 -0.6
v -0.1 1.8 -0.6
v -0.1 1.9 -0.6
v -0.1 2.1 -0.6
v -0.1 2.2 -0.6
v -0.1 2.4 -0.6
v -0.1 2.8 -0.6
v 5.96046e-08 2.2 -0.6
v 5.96046e-08 2.4 -0.6
v 0.1 1.9 -0.6
v 0.1 2.1 -0.6
v 0.3 2.1 -0.6
v 0.3 2.2 -0.6
v -0.5 1.9 -0.7
v -0.5 2.1 -0.7
v -0.4 2 -0.7
v -0.4 2.1 -0.7
v -0.3 1.9 -0.7
v -0.3 2 -0.7
v -0.2 1.9 -0.7
v -0.2 2.1 -0.7
v -0.1 1.9 -0.7
v -0.1 2.1 -0.7
v -0.3 1.9 -0.8
v -0.3 2 -0.8
v -0.3 2.1 -0.8
v -0.2 1.9 -0.8
v -0.2 2.1 -0.8
v -0.4 2 -0.9
v -0.4 2.1 -0.9
v -0.3 2 -0.9
v -0.3 2.1 -0.9
v -0.4 1.1 0.2
v -0.2 1.1 0.2
v -0.4 1.1 -5.96046e-08
v -0.2 1.1 -5.96046e-08
v -0.4 1.3 -5.96046e-08
v -0.2 1.3 -5.96046e-08
v -0.4 1.3 -0.2
v -0.2 1.3 -0.2
v -0.4 1.4 -0.2
v -0.2 1.4 -0.2
v -0.4 1.4 -0.3
v -0.2 1.4 -0.3
v -0.5 1.5 -5.96046e-08
v -0.4 1.5 -5.96046e-08
v -0.2 1.5 -5.96046e-08
v -0.1 1.5 -5.96046e-08
v -0.5 1.5 -0.3
v -0.4 1.5 -0.3
v -0.2 1.5 -0.3
v -0.1 1.5 -0.3
v -0.4 1.5 -0.4
v -0.2 1.5 -0.4
v -0.5 1.6 -0.3
v -0.4 1.6 -0.3
v -0.2 1.6 -0.3
v -0.1 1.6 -0.3
v -0.5 1.6 -0.4
v -0.4 1.6 -0.4
v -0.2 1.6 -0.4
v -0.1 1.6 -0.4
v -0.4 1.6 -0.5
v -0.2 1.6 -0.5
v -0.5 1.7 -0.4
v -0.4 1.7 -0.4
v -0.2 1.7 -0.4
v -0.1 1.7 -0.4
v -0.5 1.7 -0.5
v -0.4 1.7 -0.5
v -0.2 1.7 -0.5
v -0.1 1.7 -0.5
v -0.4 1.7 -0.6
v -0.2 1.7 -0.6
v -0.1 1.8 -0.2
v 5.96046e-08 1.8 -0.2
v -0.1 1.8 -0.3
v 5.96046e-08 1.8 -0.3
v -0.5 1.8 -0.5
v -0.4 1.8 -0.5
v -0.2 1.8 -0.5
v -0.1 1.8 -0.5
v -0.5 1.8 -0.6
v -0.4 1.8 -0.6
v -0.2 1.8 -0.6
v -0.1 1.8 -0.6
v 5.96046e-08 1.9 -0.2
v 0.1 1.9 -0.2
v -0.7 1.9 -0.3
v -0.5 1.9 -0.3
v -0.1 1.9 -0.3
v 5.96046e-08 1.9 -0.3
v -0.8 1.9 -0.4
v -0.7 1.9 -0.4
v -0.8 1.9 -0.5
v -0.6 1.9 -0.5
v -0.6 1.9 -0.6
v -0.5 1.9 -0.6
v -0.1 1.9 -0.6
v 0.1 1.9 -0.6
v -0.5 1.9 -0.7
v -0.3 1.9 -0.7
v -0.2 1.9 -0.7
v -0.1 1.9 -0.7
v -0.3 1.9 -0.8
v -0.2 1.9 -0.8
v -0.4 2 -0.7
v -0.3 2 -0.7
v -0.3 2 -0.8
v -0.4 2 -0.9
v -0.3 2 -0.9
v 0.1 2.1 -0.4
v 0.2 2.1 -0.4
v 0.2 2.1 -0.5
v 0.3 2.1 -0.5
v 0.1 2.1 -0.6
v 0.3 2.1 -0.6
v -0.4 1.4 0.2
v -0.2 1.4 0.2
v -0.4 1.4 0.0999999
v -0.2 1.4 0.0999999
v -0.4 1.6 0.0999999
v -0.2 1.6 0.0999999
v -0.5 1.6 -5.96046e-08
v -0.4 1.6 -5.96046e-08
v -0.2 1.6 -5.96046e-08
v -0.5 1.6 -0.1
v -0.4 1.6 -0.1
v -0.4 1.7 -5.96046e-08
v -0.3 1.7 -5.96046e-08
v -0.5 1.7 -0.1
v -0.4 1.7 -0.1
v -0.3 1.7 -0.1
v -0.5 1.7 -0.2
v -0.4 1.7 -0.2
v -0.3 1.8 -5.96046e-08
v -0.1 1.8 -5.96046e-08
v -0.4 1.8 -0.1
v -0.3 1.8 -0.1
v -0.1 1.8 -0.1
v -0.4 1.8 -0.2
v -0.3 1.8 -0.2
v -0.3 1.9 -0.1
v -0.2 1.9 -0.1
v -0.3 1.9 -0.2
v -0.2 1.9 -0.2
v -0.2 2 -0.1
v -0.1 2 -0.1
v -0.5 2 -0.2
v -0.4 2 -0.2
v -0.2 2 -0.2
v -0.1 2 -0.2
v -0.7 2 -0.3
v -0.5 2 -0.3
v -0.4 2 -0.3
v -0.7 2 -0.4
v -0.5 2 -0.4
v -0.5 2.1 -0.3
v -0.4 2.1 -0.3
v -0.8 2.1 -0.4
v -0.5 2.1 -0.4
v -0.8 2.1 -0.5
v -0.6 2.1 -0.5
v -0.6 2.1 -0.6
v -0.5 2.1 -0.6
v -0.4 2.1 -0.6
v -0.2 2.1 -0.6
v -0.1 2.1 -0.6
v -0.5 2.1 -0.7
v -0.4 2.1 -0.7
v -0.2 2.1 -0.7
v -0.1 2.1 -0.7
v -0.3 2.1 -0.8
v -0.2 2.1 -0.8
v -0.4 2.1 -0.9
v -0.3 2.1 -0.9
v 5.96046e-08 2.2 -0.2
v 0.1 2.2 -0.2
v 0.1 2.2 -0.4
v 0.2 2.2 -0.4
v 0.2 2.2 -0.5
v 0.3 2.2 -0.5
v 5.96046e-08 2.2 -0.6
v 0.3 2.2 -0.6
v -0.1 2.3 -0.2
v 5.96046e-08 2.3 -0.2
v -0.1 2.3 -0.4
v 5.96046e-08 2.3 -0.4
v -0.1 2.4 -0.4
v 5.96046e-08 2.4 -0.4
v -0.1 2.4 -0.6
v 5.96046e-08 2.4 -0.6
v -0.4 2.6 -0.2
v -0.3 2.6 -0.2
v -0.4 2.6 -0.6
v -0.3 2.6 -0.6
v -0.3 2.7 -0.2
v -0.2 2.7 -0.2
v -0.3 2.7 -0.6
v -0.2 2.7 -0.6
v -0.2 2.8 -0.5
v -0.1 2.8 -0.5
v -0.2 2.8 -0.6
v -0.1 2.8 -0.6
v -0.2 2.9 -0.2
v -0.1 2.9 -0.2
v -0.2 2.9 -0.5
v -0.1 2.9 -0.5

# faces
f 3/2/1 2/2/1 1/2/1
f 4/2/1 2/2/1 3/2/1
f 7/2/1 6/2/1 5/2/1
f 8/2/1 6/2/1 7/2/1
f 11/2/1 10/2/1 9/2/1
f 12/2/1 10/2/1 11/2/1
f 15/2/1 14/2/1 13/2/1
f 16/2/1 14/2/1 15/2/1
f 17/2/1 14/2/1 16/2/1
f 19/2/1 18/2/1 17/2/1
f 19/2/1 17/2/1 16/2/1
f 20/2/1 18/2/1 19/2/1
f 21/2/1 18/2/1 20/2/1
f 23/2/1 22/2/1 21/2/1
f 23/2/1 21/2/1 20/2/1
f 25/2/1 23/2/1 20/2/1
f 25/2/1 24/2/1 23/2/1
f 26/2/1 24/2/1 25/2/1
f 28/2/1 25/2/1 20/2/1
f 29/2/1 25/2/1 28/2/1
f 31/2/1 30/2/1 29/2/1
f 32/2/1 30/2/1 31/2/1
f 33/2/1 27/2/1 26/2/1
f 34/2/1 27/2/1 33/2/1
f 37/3/1 36/3/1 35/3/1
f 38/3/1 36/3/1 37/3/1
f 39/2/1 38/2/1 37/2/1
f 41/2/1 39/2/1 37/2/1
f 41/2/1 40/2/1 39/2/1
f 42/2/1 40/2/1 41/2/1
f 43/2/1 40/2/1 42/2/1
f 45/2/1 44/2/1 43/2/1
f 45/2/1 43/2/1 42/2/1
f 46/2/1 44/2/1 45/2/1
f 48/2/1 45/2/1 42/2/1
f 49/2/1 45/2/1 48/2/1
f 51/2/1 47/2/1 46/2/1
f 52/2/1 47/2/1 51/2/1
f 54/2/1 50/2/1 49/2/1
f 55/2/1 50/2/1 54/2/1
f 57/2/1 53/2/1 52/2/1
f 58/2/1 53/2/1 57/2/1
f 60/2/1 56/2/1 55/2/1
f 61/2/1 56/2/1 60/2/1
f 62/2/1 59/2/1 58/2/1
f 63/2/1 59/2/1 62/2/1
f 68/1/1 65/1/1 64/1/1
f 70/2/1 67/2/1 66/2/1
f 71/2/1 67/2/1 70/2/1
f 72/1/1 69/1/1 68/1/1
f 72/1/1 68/1/1 64/1/1
f 73/1/1 69/1/1 72/1/1
f 76/2/1 75/2/1 74/2/1
f 77/2/1 75/2/1 76/2/1
f 79/2/1 78/2/1 77/2/1
f 80/2/1 78/2/1 79/2/1
f 83/2/1 82/2/1 81/2/1
f 84/2/1 82/2/1 83/2/1
f 87/1/1 86/1/1 85/1/1
f 88/1/1 86/1/1 87/1/1
f 91/2/1 90/2/1 89/2/1
f 92/2/1 90/2/1 91/2/1
f 95/1/1 94/1/1 93/1/1
f 96/1/1 94/1/1 95/1/1
f 97/1/1 95/1/1 93/1/1
f 98/1/1 95/1/1 97/1/1
f 99/2/2 100/2/2 101/2/2
f 101/2/2 100/2/2 102/2/2
f 103/3/2 104/3/2 105/3/2
f 105/3/2 104/3/2 106/3/2
f 105/2/2 106/2/2 107/2/2
f 105/2/2 107/2/2 109/2/2
f 107/2/2 108/2/2 109/2/2
f 109/2/2 108/2/2 110/2/2
f 110/2/2 108/2/2 111/2/2
f 111/2/2 112/2/2 113/2/2
f 110/2/2 111/2/2 113/2/2
f 113/2/2 112/2/2 114/2/2
f 110/2/2 113/2/2 116/2/2
f 116/2/2 113/2/2 117/2/2
f 114/2/2 115/2/2 118/2/2
f 118/2/2 115/2/2 119/2/2
f 119/2/2 120/2/2 121/2/2
f 121/2/2 120/2/2 122/2/2
f 122/2/2 123/2/2 124/2/2
f 124/2/2 123/2/2 125/2/2
f 126/2/2 127/2/2 128/2/2
f 128/2/2 127/2/2 129/2/2
f 130/2/2 131/2/2 132/2/2
f 132/2/2 133/2/2 134/2/2
f 130/2/2 132/2/2 136/2/2
f 134/2/2 135/2/2 136/2/2
f 132/2/2 134/2/2 136/2/2
f 136/2/2 135/2/2 137/2/2
f 137/2/2 135/2/2 138/2/2
f 138/2/2 135/2/2 139/2/2
f 139/2/2 135/2/2 140/2/2
f 140/2/2 141/2/2 142/2/2
f 139/2/2 140/2/2 142/2/2
f 142/2/2 141/2/2 143/2/2
f 137/2/2 138/2/2 145/2/2
f 145/2/2 138/2/2 146/2/2
f 143/2/2 144/2/2 147/2/2
f 147/2/2 144/2/2 148/2/2
f 149/1/2 150/1/2 151/1/2
f 151/1/2 152/1/2 153/1/2
f 153/1/2 152/1/2 154/1/2
f 149/1/2 151/1/2 155/1/2
f 151/1/2 153/1/2 155/1/2
f 155/1/2 153/1/2 156/1/2
f 157/2/2 158/2/2 159/2/2
f 159/2/2 158/2/2 160/2/2
f 161/2/2 162/2/2 163/2/2
f 163/2/2 162/2/2 164/2/2
f 164/2/2 162/2/2 165/2/2
f 165/2/2 162/2/2 166/2/2
f 167/2/2 168/2/2 169/2/2
f 169/2/2 168/2/2 170/2/2
f 167/2/2 169/2/2 171/2/2
f 171/2/2 169/2/2 172/2/2
f 173/2/2 174/2/2 175/2/2
f 175/2/2 174/2/2 176/2/2
f 177/2/2 178/2/2 179/2/2
f 179/2/2 178/2/2 180/2/2
f 184/3/3 182/3/3 181/3/3
f 185/2/3 183/2/3 182/2/3
f 185/3/3 182/3/3 184/3/3
f 186/2/3 183/2/3 185/2/3
f 189/2/3 188/2/3 187/2/3
f 190/2/3 188/2/3 189/2/3
f 193/2/3 192/2/3 191/2/3
f 194/2/3 192/2/3 193/2/3
f 196/2/3 195/2/3 194/2/3
f 199/2/3 196/2/3 194/2/3
f 199/2/3 197/2/3 196/2/3
f 200/2/3 199/2/3 198/2/3
f 201/2/3 197/2/3 199/2/3
f 201/2/3 199/2/3 200/2/3
f 204/2/3 203/2/3 202/2/3
f 205/2/3 203/2/3 204/2/3
f 207/2/3 206/2/3 205/2/3
f 208/2/3 206/2/3 207/2/3
f 210/2/3 209/2/3 208/2/3
f 212/2/3 210/2/3 208/2/3
f 212/2/3 211/2/3 210/2/3
f 213/2/3 211/2/3 212/2/3
f 216/2/3 215/2/3 214/2/3
f 217/2/3 215/2/3 216/2/3
f 218/2/3 215/2/3 217/2/3
f 219/2/3 215/2/3 218/2/3
f 221/2/3 218/2/3 217/2/3
f 222/1/3 220/1/3 219/1/3
f 222/2/3 218/2/3 221/2/3
f 222/1/3 219/1/3 218/1/3
f 223/1/3 220/1/3 222/1/3
f 224/1/3 220/1/3 223/1/3
f 226/2/3 223/2/3 222/2/3
f 227/1/3 225/1/3 224/1/3
f 227/2/3 223/2/3 226/2/3
f 227/1/3 224/1/3 223/1/3
f 228/1/3 225/1/3 227/1/3
f 229/1/3 225/1/3 228/1/3
f 232/2/3 228/2/3 227/2/3
f 233/1/3 230/1/3 229/1/3
f 233/1/3 229/1/3 228/1/3
f 233/2/3 228/2/3 232/2/3
f 234/1/3 230/1/3 233/1/3
f 235/1/3 230/1/3 234/1/3
f 236/2/3 232/2/3 231/2/3
f 236/2/3 233/2/3 232/2/3
f 236/2/3 234/2/3 233/2/3
f 237/2/3 234/2/3 236/2/3
f 238/2/3 234/2/3 237/2/3
f 239/2/3 234/2/3 238/2/3
f 240/2/3 238/2/3 237/2/3
f 241/2/3 238/2/3 240/2/3
f 244/2/3 243/2/3 242/2/3
f 245/2/3 243/2/3 244/2/3
f 247/2/3 246/2/3 245/2/3
f 248/2/3 246/2/3 247/2/3
f 251/2/3 250/2/3 249/2/3
f 252/2/3 250/2/3 251/2/3
f 253/2/3 250/2/3 252/2/3
f 254/2/3 250/2/3 253/2/3
f 257/2/3 256/2/3 255/2/3
f 258/2/3 256/2/3 257/2/3
f 261/2/3 260/2/3 259/2/3
f 262/2/3 260/2/3 261/2/3
f 265/2/3 264/2/3 263/2/3
f 266/2/3 264/2/3 265/2/3
f 267/3/4 268/3/4 270/3/4
f 268/2/4 269/2/4 271/2/4
f 270/3/4 268/3/4 271/3/4
f 271/2/4 269/2/4 272/2/4
f 273/2/4 274/2/4 275/2/4
f 275/2/4 274/2/4 276/2/4
f 277/2/4 278/2/4 280/2/4
f 280/2/4 278/2/4 281/2/4
f 279/2/4 280/2/4 282/2/4
f 282/2/4 280/2/4 283/2/4
f 283/2/4 284/2/4 285/2/4
f 285/2/4 284/2/4 286/2/4
f 287/2/4 288/2/4 289/2/4
f 289/2/4 288/2/4 290/2/4
f 291/2/4 292/2/4 294/2/4
f 294/2/4 292/2/4 295/2/4
f 293/2/4 294/2/4 296/2/4
f 296/2/4 294/2/4 297/2/4
f 297/2/4 298/2/4 299/2/4
f 299/2/4 298/2/4 300/2/4
f 301/2/4 302/2/4 303/2/4
f 303/2/4 302/2/4 304/2/4
f 305/2/4 306/2/4 308/2/4
f 308/2/4 306/2/4 309/2/4
f 307/2/4 308/2/4 310/2/4
f 310/2/4 308/2/4 311/2/4
f 311/2/4 312/2/4 315/2/4
f 315/2/4 312/2/4 316/2/4
f 313/1/4 314/1/4 317/1/4
f 317/1/4 314/1/4 318/1/4
f 319/2/4 320/2/4 322/2/4
f 322/2/4 320/2/4 323/2/4
f 321/2/4 322/2/4 325/2/4
f 326/1/4 327/1/4 328/1/4
f 324/2/4 325/2/4 330/2/4
f 325/2/4 322/2/4 331/2/4
f 330/2/4 325/2/4 331/2/4
f 328/1/4 329/1/4 332/1/4
f 326/1/4 328/1/4 332/1/4
f 332/1/4 329/1/4 333/1/4
f 333/1/4 329/1/4 334/1/4
f 331/2/4 322/2/4 336/2/4
f 336/2/4 322/2/4 337/2/4
f 332/2/4 333/2/4 338/2/4
f 334/1/4 335/1/4 339/1/4
f 333/1/4 334/1/4 339/1/4
f 338/2/4 333/2/4 339/2/4
f 339/1/4 335/1/4 340/1/4
f 340/1/4 335/1/4 341/1/4
f 337/2/4 338/2/4 342/2/4
f 339/2/4 340/2/4 342/2/4
f 338/2/4 339/2/4 342/2/4
f 342/2/4 340/2/4 343/2/4
f 337/2/4 342/2/4 344/2/4
f 344/2/4 342/2/4 345/2/4
f 345/2/4 342/2/4 346/2/4
f 346/2/4 342/2/4 347/2/4
f 348/2/4 349/2/4 350/2/4
f 350/2/4 349/2/4 351/2/4
f 348/2/4 350/2/4 352/2/4
f 352/2/4 350/2/4 353/2/4
f 354/2/4 355/2/4 356/2/4
f 356/2/4 355/2/4 357/2/4
f 358/2/4 359/2/4 361/2/4
f 359/2/4 360/2/4 361/2/4
f 361/2/4 360/2/4 362/2/4
f 363/2/4 364/2/4 365/2/4
f 365/2/4 364/2/4 366/2/4
f 369/3/5 368/3/5 367/3/5
f 370/3/5 368/3/5 369/3/5
f 373/2/5 372/2/5 371/2/5
f 374/2/5 372/2/5 373/2/5
f 377/2/5 376/2/5 375/2/5
f 378/2/5 376/2/5 377/2/5
f 383/2/5 380/2/5 379/2/5
f 384/2/5 380/2/5 383/2/5
f 385/2/5 382/2/5 381/2/5
f 386/2/5 382/2/5 385/2/5
f 387/2/5 385/2/5 384/2/5
f 388/2/5 385/2/5 387/2/5
f 393/2/5 390/2/5 389/2/5
f 394/2/5 390/2/5 393/2/5
f 395/2/5 392/2/5 391/2/5
f 396/2/5 392/2/5 395/2/5
f 397/2/5 395/2/5 394/2/5
f 398/2/5 395/2/5 397/2/5
f 403/2/5 400/2/5 399/2/5
f 404/2/5 400/2/5 403/2/5
f 405/2/5 402/2/5 401/2/5
f 406/2/5 402/2/5 405/2/5
f 407/2/5 405/2/5 404/2/5
f 408/2/5 405/2/5 407/2/5
f 411/2/5 410/2/5 409/2/5
f 412/2/5 410/2/5 411/2/5
f 417/2/5 414/2/5 413/2/5
f 418/2/5 414/2/5 417/2/5
f 419/2/5 416/2/5 415/2/5
f 420/2/5 416/2/5 419/2/5
f 426/2/5 422/2/5 421/2/5
f 428/2/5 424/2/5 423/2/5
f 429/2/5 428/2/5 427/2/5
f 430/2/5 424/2/5 428/2/5
f 430/2/5 428/2/5 429/2/5
f 431/2/5 424/2/5 430/2/5
f 432/2/5 424/2/5 431/2/5
f 433/2/5 426/2/5 425/2/5
f 434/2/5 422/2/5 426/2/5
f 434/2/5 426/2/5 433/2/5
f 435/2/5 433/2/5 432/2/5
f 436/2/5 433/2/5 435/2/5
f 437/2/5 433/2/5 436/2/5
f 438/2/5 433/2/5 437/2/5
f 439/2/5 437/2/5 436/2/5
f 440/2/5 437/2/5 439/2/5
f 443/2/5 442/2/5 441/2/5
f 444/2/5 443/2/5 441/2/5
f 445/2/5 443/2/5 444/2/5
f 448/2/5 447/2/5 446/2/5
f 450/2/5 448/2/5 446/2/5
f 450/2/5 449/2/5 448/2/5
f 451/2/5 449/2/5 450/2/5
f 452/2/6 453/2/6 454/2/6
f 454/2/6 453/2/6 455/2/6
f 456/2/6 457/2/6 459/2/6
f 459/2/6 457/2/6 460/2/6
f 458/2/6 459/2/6 461/2/6
f 461/2/6 459/2/6 462/2/6
f 463/2/6 464/2/6 466/2/6
f 466/2/6 464/2/6 467/2/6
f 465/2/6 466/2/6 468/2/6
f 468/2/6 466/2/6 469/2/6
f 470/2/6 471/2/6 473/2/6
f 473/2/6 471/2/6 474/2/6
f 472/2/6 473/2/6 475/2/6
f 475/2/6 473/2/6 476/2/6
f 477/2/6 478/2/6 479/2/6
f 479/2/6 478/2/6 480/2/6
f 481/2/6 482/2/6 485/2/6
f 485/2/6 482/2/6 486/2/6
f 483/2/6 484/2/6 488/2/6
f 488/2/6 484/2/6 489/2/6
f 487/2/6 488/2/6 490/2/6
f 490/2/6 488/2/6 491/2/6
f 492/2/6 493/2/6 495/2/6
f 494/2/6 495/2/6 496/2/6
f 496/2/6 495/2/6 497/2/6
f 497/2/6 495/2/6 498/2/6
f 495/2/6 493/2/6 499/2/6
f 498/2/6 495/2/6 499/2/6
f 499/2/6 493/2/6 500/2/6
f 501/2/6 502/2/6 503/2/6
f 500/2/6 501/2/6 503/2/6
f 499/2/6 500/2/6 503/2/6
f 503/2/6 502/2/6 504/2/6
f 504/2/6 502/2/6 505/2/6
f 505/2/6 502/2/6 506/2/6
f 504/2/6 505/2/6 507/2/6
f 507/2/6 505/2/6 508/2/6
f 504/2/6 507/2/6 509/2/6
f 509/2/6 507/2/6 510/2/6
f 511/2/6 512/2/6 513/2/6
f 513/2/6 514/2/6 515/2/6
f 511/2/6 513/2/6 517/2/6
f 515/2/6 516/2/6 517/2/6
f 513/2/6 515/2/6 517/2/6
f 517/2/6 516/2/6 518/2/6
f 519/2/6 520/2/6 521/2/6
f 521/2/6 520/2/6 522/2/6
f 523/2/6 524/2/6 525/2/6
f 525/2/6 524/2/6 526/2/6
f 527/1/6 528/1/6 529/1/6
f 529/1/6 528/1/6 530/1/6
f 531/1/6 532/1/6 533/1/6
f 533/1/6 532/1/6 534/1/6
f 535/1/6 536/1/6 537/1/6
f 537/1/6 536/1/6 538/1/6
f 539/1/6 540/1/6 541/1/6
f 541/1/6 540/1/6 542/1/6
